name Walk1.mot
datacolumns 19
datarows 15
range 1.74000000 1.81000000
endheader

                time	   L_ground_force_vx	   L_ground_force_vy	   L_ground_force_vz	   L_ground_force_px	   L_ground_force_py	   L_ground_force_pz	   R_ground_force_vx	   R_ground_force_vy	   R_ground_force_vz	   R_ground_force_px	   R_ground_force_py	   R_ground_force_pz	   L_ground_torque_x	   L_ground_torque_y	   L_ground_torque_z	   R_ground_torque_x	   R_ground_torque_y	   R_ground_torque_z	
          1.74000000	         21.71534535	        933.58108673	         64.48499430	         -0.10371733	          0.00000000	         -0.03776773	         -0.00056241	          0.06316687	          0.00517647	          0.00012858	          0.00000000	          0.00004132	          0.00000000	         -1.16333916	          0.00000000	          0.00000000	         -0.00034306	          0.00000000	
          1.74500000	         25.12825883	        945.21500353	         65.99811438	         -0.10299061	          0.00000000	         -0.03792094	         -0.00549902	          0.12656893	          0.00943633	          0.00019823	          0.00000000	          0.00006156	          0.00000000	         -1.26179724	          0.00000000	          0.00000000	          0.00030384	          0.00000000	
          1.75000000	         28.89038708	        957.27270022	         67.52741965	         -0.10230536	          0.00000000	         -0.03805340	         -0.01251887	          0.20982730	          0.01491530	          0.00028239	          0.00000000	          0.00008554	          0.00000000	         -1.36367173	          0.00000000	          0.00000000	          0.00127512	          0.00000000	
          1.75500000	         32.99728983	        969.68693168	         69.05714637	         -0.10165821	          0.00000000	         -0.03816640	         -0.02192156	          0.31378112	          0.02161962	          0.00037880	          0.00000000	          0.00011237	          0.00000000	         -1.46856473	          0.00000000	          0.00000000	          0.00263247	          0.00000000	
          1.76000000	         37.44461515	        982.38389038	         70.56961012	         -0.10104543	          0.00000000	         -0.03826180	         -0.03388039	          0.43718657	          0.02940789	          0.00048243	          0.00000000	          0.00014036	          0.00000000	         -1.57677508	          0.00000000	          0.00000000	          0.00442442	          0.00000000	
          1.76500000	         42.22862492	        995.28436045	         72.04553336	         -0.10046392	          0.00000000	         -0.03834236	         -0.04835033	          0.57570515	          0.03792595	          0.00058452	          0.00000000	          0.00016670	          0.00000000	         -1.68883720	          0.00000000	          0.00000000	          0.00667311	          0.00000000	
          1.77000000	         47.34678813	       1008.30198312	         73.46461990	         -0.09991135	          0.00000000	         -0.03841137	         -0.06495151	          0.72070760	          0.04653151	          0.00067163	          0.00000000	          0.00018721	          0.00000000	         -1.80499520	          0.00000000	          0.00000000	          0.00935668	          0.00000000	
          1.77500000	         52.79667808	       1021.34163656	         74.80760097	         -0.09938649	          0.00000000	         -0.03847146	         -0.08282871	          0.85793800	          0.05421219	          0.00072464	          0.00000000	          0.00019610	          0.00000000	         -1.92482101	          0.00000000	          0.00000000	          0.01238745	          0.00000000	
          1.78000000	         58.57331303	       1034.29638168	         76.05803152	         -0.09888763	          0.00000000	         -0.03852403	         -0.10049094	          0.96612444	          0.05950341	          0.00071793	          0.00000000	          0.00018578	          0.00000000	         -2.04755892	          0.00000000	          0.00000000	          0.01558584	          0.00000000	
          1.78500000	         64.66614595	       1047.04806964	         77.20321507	         -0.09841215	          0.00000000	         -0.03856975	         -0.11563972	          1.01567792	          0.06041599	          0.00061893	          0.00000000	          0.00014678	          0.00000000	         -2.17238254	          0.00000000	          0.00000000	          0.01865118	          0.00000000	
          1.79000000	         71.05897752	       1059.47062272	         78.23364885	         -0.09795673	          0.00000000	         -0.03860895	         -0.12500079	          0.96768899	          0.05438805	          0.00038822	          0.00000000	          0.00006786	          0.00000000	         -2.29856171	          0.00000000	          0.00000000	          0.02113100	          0.00000000	
          1.79500000	         77.72995528	       1071.43291427	         79.14135343	         -0.09751759	          0.00000000	         -0.03864169	         -0.12418214	          0.77351282	          0.03828064	         -0.00001942	          0.00000000	         -0.00006357	          0.00000000	         -2.42512358	          0.00000000	          0.00000000	          0.02239193	          0.00000000	
          1.80000000	         84.65214122	       1082.80098398	         79.91882613	         -0.09709077	          0.00000000	         -0.03866838	         -0.10759042	          0.37532257	          0.00844199	         -0.00065269	          0.00000000	         -0.00026069	          0.00000000	         -2.55092350	          0.00000000	          0.00000000	          0.02159665	          0.00000000	
          1.80500000	         91.79316976	       1093.43921904	         80.55928637	         -0.09667210	          0.00000000	         -0.03869122	         -0.06844870	         -0.29189503	         -0.03912893	         -0.00155971	          0.00000000	         -0.00053592	          0.00000000	         -2.67454027	          0.00000000	          0.00000000	          0.01769302	          0.00000000	
          1.81000000	         99.11435531	       1103.21329422	         81.05976790	         -0.09625783	          0.00000000	         -0.03871310	          0.00102974	         -1.29634176	         -0.10848435	         -0.00278175	          0.00000000	         -0.00089902	          0.00000000	         -2.79410012	          0.00000000	          0.00000000	          0.00942374	          0.00000000	
